<?xml version="1.0" encoding="UTF-8" standalone="no"?>
<svg width="30px" height="19px" viewBox="0 0 30 19" version="1.1" xmlns="http://www.w3.org/2000/svg" xmlns:xlink="http://www.w3.org/1999/xlink">
    <!-- Generator: Sketch 46.2 (44496) - http://www.bohemiancoding.com/sketch -->
    <title>Shape</title>
    <desc>Created with Sketch.</desc>
    <defs></defs>
    <g id="Page-1" stroke="none" stroke-width="1" fill="none" fill-rule="evenodd">
        <g id="Desktop-HD-Copy" transform="translate(-705.000000, -586.000000)" stroke="#FFFFFF" fill-rule="nonzero" fill="#FFFFFF">
            <g id="Group-4" transform="translate(670.000000, 536.000000)">
                <path d="M63.9908765,51 C63.7373092,51 63.5317523,51.2176045 63.5317523,51.4860333 L63.5317523,56.9539079 C63.5317523,59.3697669 61.6817399,61.3282075 59.399634,61.3282075 L37.5682758,61.3282075 L42.4120367,56.2054166 C42.5680365,56.0125779 42.557548,55.7251213 42.3879617,55.5455957 C42.2183754,55.36607 41.9468338,55.3549668 41.7646715,55.5201097 L36.1358082,61.4691572 C36.0488902,61.560418 36,61.6846461 36,61.8142408 C36,61.9438356 36.0488902,62.0680637 36.1358082,62.1593245 L41.7600803,68.1132324 C41.9411237,68.279841 42.2128127,68.270821 42.3836384,68.0925303 C42.5544641,67.9142396 42.5668374,67.6267839 42.4120367,67.4327857 L37.5682758,62.3002741 L59.399634,62.3002741 C62.1888745,62.3002741 64.4500008,59.9066244 64.4500008,56.9539079 L64.4500008,51.4860333 C64.4500008,51.2176045 64.2444438,51 63.9908765,51 Z" id="Shape"></path>
            </g>
        </g>
    </g>
</svg>